<svg xmlns="http://www.w3.org/2000/svg" width="1272" height="978" viewBox="0 0 1272 978" font-family="ui-sans-serif, -apple-system, BlinkMacSystemFont, 'Segoe UI', Roboto, Helvetica, Arial, sans-serif">
  <title>openchemlib-sqlite — the tables migrate() adds</title>
  <desc>Schema version 6: the fingerprint index with its bit counts and carried columns, the two structure-hash tables, the plane index with its watermark, the triggers keeping the watermark and the bit counts honest, and the bookkeeping tables, alongside the entries table the caller owns.</desc>

  <defs>
    <style>
      .h    { font-size: 19px; font-weight: 700; fill: #16202c; }
      .sub  { font-size: 12.5px; fill: #5b6875; }
      .tbl  { font-size: 13.5px; font-weight: 700; fill: #16202c; font-family: ui-monospace, SFMono-Regular, Menlo, Consolas, monospace; }
      .col  { font-size: 12px; fill: #16202c; font-family: ui-monospace, SFMono-Regular, Menlo, Consolas, monospace; }
      .type { font-size: 11px; fill: #8a96a3; font-family: ui-monospace, SFMono-Regular, Menlo, Consolas, monospace; }
      .note { font-size: 11px; fill: #5b6875; }
      .key  { font-size: 9.5px; font-weight: 700; fill: #ffffff; font-family: ui-monospace, SFMono-Regular, Menlo, Consolas, monospace; }
      .lbl  { font-size: 10.5px; fill: #5b6875; font-family: ui-monospace, SFMono-Regular, Menlo, Consolas, monospace; }
      .mono { font-family: ui-monospace, SFMono-Regular, Menlo, Consolas, monospace; }
      .badge{ font-size: 10.5px; font-weight: 600; }
    </style>
    <marker id="fk" viewBox="0 0 10 10" refX="9" refY="5" markerWidth="7" markerHeight="7" orient="auto-start-reverse">
      <path d="M0 0 L10 5 L0 10 z" fill="#8a96a3"/>
    </marker>
    <marker id="fold" viewBox="0 0 10 10" refX="9" refY="5" markerWidth="7" markerHeight="7" orient="auto-start-reverse">
      <path d="M0 0 L10 5 L0 10 z" fill="#1e3a8a"/>
    </marker>
    <marker id="trig" viewBox="0 0 10 10" refX="9" refY="5" markerWidth="7" markerHeight="7" orient="auto-start-reverse">
      <path d="M0 0 L10 5 L0 10 z" fill="#9d174d"/>
    </marker>
  </defs>

  <rect width="1272" height="978" fill="#ffffff"/>

  <text x="32" y="42" class="h">openchemlib-sqlite — the tables <tspan class="mono">migrate()</tspan> adds</text>
  <text x="32" y="64" class="sub">Schema version 6. Every <tspan class="mono">entry_id</tspan> refers to your entries table; the plane index stays empty until <tspan class="mono">foldPlanes()</tspan> runs.</text>

  <!-- ============ entries table (caller-owned) ============ -->
  <g>
    <rect x="32" y="100" width="250" height="126" rx="10" fill="#f5f7fa" stroke="#c3cad3" stroke-width="1.5" stroke-dasharray="6 4"/>
    <rect x="32" y="100" width="250" height="34" rx="10" fill="#e8ecf1"/>
    <rect x="32" y="124" width="250" height="10" fill="#e8ecf1"/>
    <text x="48" y="122" class="tbl">molecules</text>
    <text x="266" y="122" class="lbl" text-anchor="end">yours</text>

    <rect x="48" y="146" width="22" height="13" rx="3" fill="#5b6875"/>
    <text x="59" y="156" class="key" text-anchor="middle">PK</text>
    <text x="78" y="156" class="col">id</text>
    <text x="266" y="156" class="type" text-anchor="end">INTEGER</text>

    <text x="78" y="180" class="col">id_code</text>
    <text x="266" y="180" class="type" text-anchor="end">TEXT</text>

    <text x="78" y="204" class="col" style="fill:#8a96a3">mw</text>
    <text x="266" y="204" class="type" text-anchor="end">REAL · optional</text>

    <text x="32" y="252" class="note">Your table. An idCode is all it needs;</text>
    <text x="32" y="268" class="note">an mw column is read when there is one.</text>
  </g>

  <g>
    <rect x="32" y="296" width="250" height="110" rx="10" fill="#f5f7fa" stroke="#dfe3e8"/>
    <text x="48" y="320" class="sub" font-weight="700" style="fill:#16202c">Index in a file of its own</text>
    <text x="48" y="342" class="note">Attach the entries file and name the</text>
    <text x="48" y="358" class="note">table <tspan class="mono">mol.molecules</tspan>: the same tables,</text>
    <text x="48" y="374" class="note">without <tspan class="mono">REFERENCES</tspan> — SQLite cannot</text>
    <text x="48" y="390" class="note">reference a table in another file.</text>
  </g>

  <!-- ============ carried columns ============ -->
  <g>
    <rect x="32" y="424" width="250" height="176" rx="10" fill="#ffffff" stroke="#5b6875" stroke-width="1.5"/>
    <rect x="32" y="424" width="250" height="34" rx="10" fill="#5b6875"/>
    <rect x="32" y="448" width="250" height="10" fill="#5b6875"/>
    <text x="48" y="446" class="tbl" style="fill:#ffffff">ocl_ss_columns</text>

    <rect x="48" y="468" width="22" height="13" rx="3" fill="#5b6875"/>
    <text x="59" y="478" class="key" text-anchor="middle">PK</text>
    <text x="78" y="478" class="col">name</text>
    <text x="266" y="478" class="type" text-anchor="end">TEXT</text>
    <text x="78" y="498" class="col">type</text>
    <text x="266" y="498" class="type" text-anchor="end">TEXT NOT NULL</text>
    <text x="78" y="518" class="col">fill_to</text>
    <text x="266" y="518" class="type" text-anchor="end">INTEGER</text>
    <text x="78" y="538" class="col">fill_cursor</text>
    <text x="266" y="538" class="type" text-anchor="end">INT NOT NULL</text>

    <line x1="48" y1="550" x2="266" y2="550" stroke="#dfe3e8"/>
    <text x="48" y="568" class="note">Records <tspan class="mono">ss_bits</tspan> and each <tspan class="mono">col_<tspan font-style="italic">name</tspan></tspan>.</text>
    <text x="48" y="584" class="note">NULL <tspan class="mono">fill_to</tspan>: every entry has a value.</text>
  </g>

  <!-- ============ the three states of a hash row ============ -->
  <g>
    <rect x="32" y="616" width="250" height="180" rx="10" fill="#fdf8f1" stroke="#e8d5b8"/>
    <text x="48" y="640" class="sub" font-weight="700" style="fill:#8a5a12">What a hash row means</text>

    <circle cx="54" cy="664" r="4" fill="#b45309"/>
    <text x="68" y="668" class="note" font-weight="700">row present, hash set</text>
    <text x="68" y="684" class="note">the hash</text>

    <circle cx="54" cy="708" r="4" fill="#b45309"/>
    <text x="68" y="712" class="note" font-weight="700">row present, hash NULL</text>
    <text x="68" y="728" class="note">gave up — past the cap, or OCL</text>
    <text x="68" y="742" class="note">could not hash it. Never retried.</text>

    <circle cx="54" cy="766" r="4" fill="#c3cad3"/>
    <text x="68" y="770" class="note" font-weight="700">no row at all</text>
    <text x="68" y="786" class="note">not hashed yet — the resume point</text>
  </g>
  <text x="32" y="822" class="note">Presence, not value, marks an entry done,</text>
  <text x="32" y="838" class="note">which is what makes <tspan class="mono">backfillHashes()</tspan></text>
  <text x="32" y="854" class="note">resumable.</text>

  <!-- ============ ocl_ss_index ============ -->
  <g>
    <rect x="340" y="100" width="300" height="282" rx="10" fill="#ffffff" stroke="#0b5754" stroke-width="1.5"/>
    <rect x="340" y="100" width="300" height="34" rx="10" fill="#0b5754"/>
    <rect x="340" y="124" width="300" height="10" fill="#0b5754"/>
    <text x="356" y="122" class="tbl" style="fill:#ffffff">ocl_ss_index</text>

    <rect x="356" y="146" width="22" height="13" rx="3" fill="#0b5754"/>
    <text x="367" y="156" class="key" text-anchor="middle">PK</text>
    <text x="386" y="156" class="col">mw</text>
    <text x="624" y="156" class="type" text-anchor="end">REAL NOT NULL</text>

    <rect x="356" y="170" width="22" height="13" rx="3" fill="#0b5754"/>
    <text x="367" y="180" class="key" text-anchor="middle">PK</text>
    <rect x="382" y="170" width="22" height="13" rx="3" fill="#8a96a3"/>
    <text x="393" y="180" class="key" text-anchor="middle">FK</text>
    <text x="412" y="180" class="col">entry_id</text>
    <text x="624" y="180" class="type" text-anchor="end">INTEGER NOT NULL</text>

    <line x1="356" y1="194" x2="624" y2="194" stroke="#dfe3e8"/>

    <text x="386" y="214" class="col">ss_index0–7</text>
    <text x="624" y="214" class="type" text-anchor="end">INTEGER NOT NULL</text>
    <text x="386" y="246" class="col">ss_bits</text>
    <text x="624" y="246" class="type" text-anchor="end">INTEGER</text>
    <text x="386" y="278" class="col">col_<tspan font-style="italic">name</tspan> …</text>
    <text x="624" y="278" class="type" text-anchor="end">INTEGER | REAL</text>

    <line x1="356" y1="294" x2="624" y2="294" stroke="#dfe3e8"/>

    <text x="356" y="314" class="badge" style="fill:#0b5754">WITHOUT ROWID · PRIMARY KEY (mw, entry_id)</text>
    <text x="356" y="334" class="note">The 512-bit fingerprint as eight signed 64-bit ints,</text>
    <text x="356" y="350" class="note">its bit count, and the columns you declare, stored</text>
    <text x="356" y="366" class="note">lightest first: a scan stopping early keeps the closest.</text>
  </g>

  <g>
    <rect x="340" y="394" width="300" height="30" rx="8" fill="#f5f7fa" stroke="#dfe3e8"/>
    <text x="356" y="413" class="lbl">UNIQUE INDEX idx_ocl_ss_entry (entry_id)</text>
  </g>

  <!-- ============ watermark triggers ============ -->
  <g>
    <rect x="340" y="438" width="300" height="216" rx="10" fill="#fdf2f7" stroke="#9d174d" stroke-width="1.2" stroke-dasharray="5 3"/>
    <text x="356" y="460" class="sub" font-weight="700" style="fill:#9d174d">Triggers on ocl_ss_index</text>
    <text x="356" y="482" class="lbl" style="fill:#16202c">ocl_ss_watermark_insert</text>
    <text x="624" y="482" class="lbl" text-anchor="end">AFTER INSERT</text>
    <text x="356" y="500" class="lbl" style="fill:#16202c">ocl_ss_watermark_replace</text>
    <text x="624" y="500" class="lbl" text-anchor="end">BEFORE INSERT</text>
    <text x="356" y="518" class="lbl" style="fill:#16202c">ocl_ss_watermark_update</text>
    <text x="624" y="518" class="lbl" text-anchor="end">AFTER UPDATE</text>
    <text x="356" y="536" class="lbl" style="fill:#16202c">ocl_ss_watermark_delete</text>
    <text x="624" y="536" class="lbl" text-anchor="end">AFTER DELETE</text>
    <text x="356" y="558" class="note">A write at or below the bound lowers the watermark;</text>
    <text x="356" y="574" class="note">update and delete also drop the entry's slot.</text>
    <line x1="356" y1="586" x2="624" y2="586" stroke="#f0c6da"/>
    <text x="356" y="604" class="lbl" style="fill:#16202c">ocl_ss_bits_stale</text>
    <text x="624" y="604" class="lbl" text-anchor="end">AFTER UPDATE</text>
    <text x="356" y="624" class="note">A fingerprint changed in place without its count</text>
    <text x="356" y="640" class="note">sets <tspan class="mono">ss_bits</tspan> back to NULL.</text>
  </g>

  <!-- ============ the two hash tables ============ -->
  <g>
    <rect x="340" y="670" width="300" height="112" rx="10" fill="#ffffff" stroke="#1c6e42" stroke-width="1.5"/>
    <rect x="340" y="670" width="300" height="34" rx="10" fill="#1c6e42"/>
    <rect x="340" y="694" width="300" height="10" fill="#1c6e42"/>
    <text x="356" y="692" class="tbl" style="fill:#ffffff">ocl_no_stereo_hash</text>

    <rect x="356" y="716" width="22" height="13" rx="3" fill="#1c6e42"/>
    <text x="367" y="726" class="key" text-anchor="middle">PK</text>
    <rect x="382" y="716" width="22" height="13" rx="3" fill="#8a96a3"/>
    <text x="393" y="726" class="key" text-anchor="middle">FK</text>
    <text x="412" y="726" class="col">entry_id</text>
    <text x="624" y="726" class="type" text-anchor="end">INTEGER</text>

    <text x="386" y="750" class="col">hash</text>
    <text x="624" y="750" class="type" text-anchor="end">INTEGER  NULL</text>

    <line x1="356" y1="762" x2="624" y2="762" stroke="#dfe3e8"/>
    <text x="356" y="771" class="note" font-size="10.5"><tspan font-weight="700" fill="#1c6e42">pass 1</tspan> · ~74 µs a molecule · partial index on hash</text>
  </g>

  <g>
    <rect x="340" y="798" width="300" height="112" rx="10" fill="#ffffff" stroke="#b45309" stroke-width="1.5"/>
    <rect x="340" y="798" width="300" height="34" rx="10" fill="#b45309"/>
    <rect x="340" y="822" width="300" height="10" fill="#b45309"/>
    <text x="356" y="820" class="tbl" style="fill:#ffffff">ocl_no_stereo_tautomer_hash</text>

    <rect x="356" y="844" width="22" height="13" rx="3" fill="#b45309"/>
    <text x="367" y="854" class="key" text-anchor="middle">PK</text>
    <rect x="382" y="844" width="22" height="13" rx="3" fill="#8a96a3"/>
    <text x="393" y="854" class="key" text-anchor="middle">FK</text>
    <text x="412" y="854" class="col">entry_id</text>
    <text x="624" y="854" class="type" text-anchor="end">INTEGER</text>

    <text x="386" y="878" class="col">hash</text>
    <text x="624" y="878" class="type" text-anchor="end">INTEGER  NULL</text>

    <line x1="356" y1="890" x2="624" y2="890" stroke="#dfe3e8"/>
    <text x="356" y="899" class="note" font-size="10.5"><tspan font-weight="700" fill="#b45309">pass 2</tspan> · ~22 ms a molecule · partial index on hash</text>
  </g>

  <!-- ============ plane index group ============ -->
  <rect x="676" y="84" width="564" height="656" rx="14" fill="#f8f9fc" stroke="#c3cad3" stroke-dasharray="6 4"/>
  <text x="692" y="108" class="sub" font-weight="700" style="fill:#1e3a8a">Plane index</text>
  <text x="772" y="108" class="sub">· the fingerprints transposed, one bit plane per chunk of 2²⁰ slots</text>

  <!-- ocl_ss_slot -->
  <g>
    <rect x="692" y="134" width="264" height="162" rx="10" fill="#ffffff" stroke="#1e3a8a" stroke-width="1.5"/>
    <rect x="692" y="134" width="264" height="34" rx="10" fill="#1e3a8a"/>
    <rect x="692" y="158" width="264" height="10" fill="#1e3a8a"/>
    <text x="708" y="156" class="tbl" style="fill:#ffffff">ocl_ss_slot</text>

    <rect x="708" y="180" width="22" height="13" rx="3" fill="#1e3a8a"/>
    <text x="719" y="190" class="key" text-anchor="middle">PK</text>
    <text x="738" y="190" class="col">slot</text>
    <text x="940" y="190" class="type" text-anchor="end">INTEGER</text>

    <rect x="708" y="204" width="22" height="13" rx="3" fill="#8a96a3"/>
    <text x="719" y="214" class="key" text-anchor="middle">FK</text>
    <text x="738" y="214" class="col">entry_id</text>
    <text x="940" y="214" class="type" text-anchor="end">INTEGER NOT NULL</text>

    <line x1="708" y1="228" x2="940" y2="228" stroke="#dfe3e8"/>
    <text x="708" y="246" class="badge" style="fill:#1e3a8a">UNIQUE INDEX (entry_id)</text>
    <text x="708" y="266" class="note">Which entry each plane position is.</text>
    <text x="708" y="282" class="note">chunk = slot ÷ 2²⁰, offset = slot mod 2²⁰</text>
  </g>

  <!-- ocl_ss_fold -->
  <g>
    <rect x="692" y="314" width="264" height="254" rx="10" fill="#ffffff" stroke="#9d174d" stroke-width="1.5"/>
    <rect x="692" y="314" width="264" height="34" rx="10" fill="#9d174d"/>
    <rect x="692" y="338" width="264" height="10" fill="#9d174d"/>
    <text x="708" y="336" class="tbl" style="fill:#ffffff">ocl_ss_fold</text>
    <text x="940" y="336" class="lbl" style="fill:#ffffff" text-anchor="end">one row</text>

    <rect x="708" y="360" width="22" height="13" rx="3" fill="#9d174d"/>
    <text x="719" y="370" class="key" text-anchor="middle">PK</text>
    <text x="738" y="370" class="col">id</text>
    <text x="940" y="370" class="type" text-anchor="end">CHECK (id = 1)</text>
    <text x="738" y="394" class="col">watermark</text>
    <text x="940" y="394" class="type" text-anchor="end">INTEGER</text>
    <text x="738" y="418" class="col">bound</text>
    <text x="940" y="418" class="type" text-anchor="end">INTEGER</text>
    <text x="738" y="442" class="col">cursor_mw</text>
    <text x="940" y="442" class="type" text-anchor="end">REAL</text>
    <text x="738" y="466" class="col">cursor_entry_id</text>
    <text x="940" y="466" class="type" text-anchor="end">INTEGER</text>
    <text x="738" y="490" class="col">segment</text>
    <text x="940" y="490" class="type" text-anchor="end">INTEGER</text>

    <line x1="708" y1="504" x2="940" y2="504" stroke="#dfe3e8"/>
    <text x="708" y="522" class="note">Ids up to the watermark are read from the</text>
    <text x="708" y="538" class="note">planes, the rest from ocl_ss_index. The</text>
    <text x="708" y="554" class="note">cursor marks a fold in progress.</text>
  </g>

  <g>
    <text x="692" y="604" class="sub" font-weight="700" style="fill:#16202c" font-family="ui-monospace, SFMono-Regular, Menlo, Consolas, monospace" font-size="12">foldPlanes()</text>
    <text x="692" y="624" class="note">Transposes ocl_ss_index a chunk at a time,</text>
    <text x="692" y="640" class="note">resumably, and raises the watermark. Until</text>
    <text x="692" y="656" class="note">the first fold every search scans the columns.</text>
  </g>

  <!-- ocl_ss_plane -->
  <g>
    <rect x="972" y="134" width="252" height="202" rx="10" fill="#ffffff" stroke="#1e3a8a" stroke-width="1.5"/>
    <rect x="972" y="134" width="252" height="34" rx="10" fill="#1e3a8a"/>
    <rect x="972" y="158" width="252" height="10" fill="#1e3a8a"/>
    <text x="988" y="156" class="tbl" style="fill:#ffffff">ocl_ss_plane</text>

    <rect x="988" y="180" width="22" height="13" rx="3" fill="#1e3a8a"/>
    <text x="999" y="190" class="key" text-anchor="middle">PK</text>
    <text x="1018" y="190" class="col">chunk</text>
    <text x="1208" y="190" class="type" text-anchor="end">INTEGER NOT NULL</text>

    <rect x="988" y="204" width="22" height="13" rx="3" fill="#1e3a8a"/>
    <text x="999" y="214" class="key" text-anchor="middle">PK</text>
    <text x="1018" y="214" class="col">bit</text>
    <text x="1208" y="214" class="type" text-anchor="end">INTEGER NOT NULL</text>

    <text x="1018" y="238" class="col">bits</text>
    <text x="1208" y="238" class="type" text-anchor="end">BLOB NOT NULL</text>

    <line x1="988" y1="252" x2="1208" y2="252" stroke="#dfe3e8"/>
    <text x="988" y="270" class="badge" style="fill:#1e3a8a">WITHOUT ROWID · PK (chunk, bit)</text>
    <text x="988" y="290" class="note">A 128 KB blob per chunk and bit: that</text>
    <text x="988" y="306" class="note">bit for 2²⁰ slots. No row means no</text>
    <text x="988" y="322" class="note">entry of the chunk sets it.</text>
  </g>

  <!-- ocl_ss_bitstat -->
  <g>
    <rect x="972" y="352" width="252" height="166" rx="10" fill="#ffffff" stroke="#1e3a8a" stroke-width="1.5"/>
    <rect x="972" y="352" width="252" height="34" rx="10" fill="#1e3a8a"/>
    <rect x="972" y="376" width="252" height="10" fill="#1e3a8a"/>
    <text x="988" y="374" class="tbl" style="fill:#ffffff">ocl_ss_bitstat</text>

    <rect x="988" y="398" width="22" height="13" rx="3" fill="#1e3a8a"/>
    <text x="999" y="408" class="key" text-anchor="middle">PK</text>
    <text x="1018" y="408" class="col">bit</text>
    <text x="1208" y="408" class="type" text-anchor="end">INTEGER</text>
    <text x="1018" y="432" class="col">population</text>
    <text x="1208" y="432" class="type" text-anchor="end">INTEGER NOT NULL</text>
    <text x="1018" y="456" class="col">stored</text>
    <text x="1208" y="456" class="type" text-anchor="end">INTEGER NOT NULL</text>

    <line x1="988" y1="470" x2="1208" y2="470" stroke="#dfe3e8"/>
    <text x="988" y="488" class="note">512 rows. A bit set in too many entries</text>
    <text x="988" y="504" class="note">prunes little and gets no plane.</text>
  </g>

  <!-- ocl_ss_segment -->
  <g>
    <rect x="972" y="534" width="252" height="190" rx="10" fill="#ffffff" stroke="#1e3a8a" stroke-width="1.5"/>
    <rect x="972" y="534" width="252" height="34" rx="10" fill="#1e3a8a"/>
    <rect x="972" y="558" width="252" height="10" fill="#1e3a8a"/>
    <text x="988" y="556" class="tbl" style="fill:#ffffff">ocl_ss_segment</text>

    <rect x="988" y="580" width="22" height="13" rx="3" fill="#1e3a8a"/>
    <text x="999" y="590" class="key" text-anchor="middle">PK</text>
    <text x="1018" y="590" class="col">segment</text>
    <text x="1208" y="590" class="type" text-anchor="end">INTEGER</text>
    <text x="1018" y="614" class="col">first_slot</text>
    <text x="1208" y="614" class="type" text-anchor="end">INTEGER NOT NULL</text>
    <text x="1018" y="638" class="col">slot_count</text>
    <text x="1208" y="638" class="type" text-anchor="end">INTEGER NOT NULL</text>
    <text x="1018" y="662" class="col">mw_ordered</text>
    <text x="1208" y="662" class="type" text-anchor="end">INTEGER NOT NULL</text>

    <line x1="988" y1="676" x2="1208" y2="676" stroke="#dfe3e8"/>
    <text x="988" y="694" class="note">One per fold: the slots it wrote, and</text>
    <text x="988" y="710" class="note">whether they are in mw order.</text>
  </g>

  <!-- ============ bookkeeping ============ -->
  <g>
    <rect x="692" y="764" width="264" height="124" rx="10" fill="#ffffff" stroke="#5b6875" stroke-width="1.5"/>
    <rect x="692" y="764" width="264" height="34" rx="10" fill="#5b6875"/>
    <rect x="692" y="788" width="264" height="10" fill="#5b6875"/>
    <text x="708" y="786" class="tbl" style="fill:#ffffff">ocl_ss_schema</text>

    <text x="738" y="820" class="col">version</text>
    <text x="940" y="820" class="type" text-anchor="end">INTEGER NOT NULL</text>
    <text x="738" y="844" class="col">applied_at</text>
    <text x="940" y="844" class="type" text-anchor="end">TEXT NOT NULL</text>

    <line x1="708" y1="858" x2="940" y2="858" stroke="#dfe3e8"/>
    <text x="708" y="876" class="note">One row per migration applied.</text>
  </g>

  <g>
    <rect x="972" y="764" width="252" height="124" rx="10" fill="#ffffff" stroke="#5b6875" stroke-width="1.5"/>
    <rect x="972" y="764" width="252" height="34" rx="10" fill="#5b6875"/>
    <rect x="972" y="788" width="252" height="10" fill="#5b6875"/>
    <text x="988" y="786" class="tbl" style="fill:#ffffff">ocl_ss_settings</text>

    <rect x="988" y="810" width="22" height="13" rx="3" fill="#5b6875"/>
    <text x="999" y="820" class="key" text-anchor="middle">PK</text>
    <text x="1018" y="820" class="col">name</text>
    <text x="1208" y="820" class="type" text-anchor="end">TEXT</text>
    <text x="1018" y="844" class="col">value</text>
    <text x="1208" y="844" class="type" text-anchor="end">TEXT NOT NULL</text>

    <line x1="988" y1="858" x2="1208" y2="858" stroke="#dfe3e8"/>
    <text x="988" y="876" class="note">The <tspan class="mono">maxTautomers</tspan> the hashes used.</text>
  </g>

  <!-- ============ edges ============ -->
  <!-- FK: every entry_id references the entries table -->
  <path d="M282 152 H 300 Q 312 152 312 164 V 842 Q 312 850 322 850 H 340" fill="none" stroke="#8a96a3" stroke-width="1.5" marker-end="url(#fk)"/>
  <path d="M312 176 H 340" fill="none" stroke="#8a96a3" stroke-width="1.5" marker-end="url(#fk)"/>
  <path d="M312 722 H 340" fill="none" stroke="#8a96a3" stroke-width="1.5" marker-end="url(#fk)"/>
  <text x="296" y="144" class="lbl">FK</text>

  <!-- foldPlanes(): ocl_ss_index into the plane index -->
  <path d="M640 150 H 692" fill="none" stroke="#1e3a8a" stroke-width="1.5" marker-end="url(#fold)"/>
  <text x="644" y="143" class="lbl" style="fill:#1e3a8a">fold</text>

  <!-- triggers move the watermark, drop slots, and forget stale bit counts -->
  <path d="M640 482 C 668 482, 664 394, 692 394" fill="none" stroke="#9d174d" stroke-width="1.5" stroke-dasharray="5 3" marker-end="url(#trig)"/>
  <path d="M640 466 C 670 466, 662 214, 692 214" fill="none" stroke="#9d174d" stroke-width="1.5" stroke-dasharray="5 3" marker-end="url(#trig)"/>
  <path d="M340 600 H 330 Q 324 600 324 594 V 248 Q 324 242 330 242 H 340" fill="none" stroke="#9d174d" stroke-width="1.5" stroke-dasharray="5 3" marker-end="url(#trig)"/>

  <!-- ============ legend ============ -->
  <g>
    <line x1="32" y1="934" x2="1240" y2="934" stroke="#dfe3e8"/>
    <rect x="32" y="950" width="22" height="13" rx="3" fill="#5b6875"/>
    <text x="43" y="960" class="key" text-anchor="middle">PK</text>
    <text x="62" y="960" class="note">primary key</text>

    <rect x="150" y="950" width="22" height="13" rx="3" fill="#8a96a3"/>
    <text x="161" y="960" class="key" text-anchor="middle">FK</text>
    <text x="180" y="960" class="note">references your entries table's primary key (dropped when it lives in another file)</text>

    <line x1="668" y1="956" x2="700" y2="956" stroke="#1e3a8a" stroke-width="1.5" marker-end="url(#fold)"/>
    <text x="708" y="960" class="note">written by <tspan class="mono">foldPlanes()</tspan></text>

    <line x1="860" y1="956" x2="892" y2="956" stroke="#9d174d" stroke-width="1.5" stroke-dasharray="5 3" marker-end="url(#trig)"/>
    <text x="900" y="960" class="note">written by the triggers</text>
  </g>
</svg>
